TITLE ""
FILE "TOEIC LR Kinnojyukugo_10.mp3" MP3
  TRACK 01 AUDIO
    TITLE "TOEIC LR Kinnojyukugo_10_001"
    INDEX 01 00:00:00
  TRACK 02 AUDIO
    TITLE "TOEIC LR Kinnojyukugo_10_002"
    INDEX 01 00:00:12
  TRACK 03 AUDIO
    TITLE "TOEIC LR Kinnojyukugo_10_003"
    INDEX 01 00:01:27
  TRACK 04 AUDIO
    TITLE "TOEIC LR Kinnojyukugo_10_004"
    INDEX 01 00:01:57
  TRACK 05 AUDIO
    TITLE "TOEIC LR Kinnojyukugo_10_005"
    INDEX 01 00:03:38
  TRACK 06 AUDIO
    TITLE "TOEIC LR Kinnojyukugo_10_006"
    INDEX 01 00:04:43
  TRACK 07 AUDIO
    TITLE "TOEIC LR Kinnojyukugo_10_007"
    INDEX 01 00:05:70
  TRACK 08 AUDIO
    TITLE "TOEIC LR Kinnojyukugo_10_008"
    INDEX 01 00:06:34
  TRACK 09 AUDIO
    TITLE "TOEIC LR Kinnojyukugo_10_009"
    INDEX 01 00:08:29
  TRACK 10 AUDIO
    TITLE "TOEIC LR Kinnojyukugo_10_010"
    INDEX 01 00:09:33
  TRACK 11 AUDIO
    TITLE "TOEIC LR Kinnojyukugo_10_011"
    INDEX 01 00:10:58
  TRACK 12 AUDIO
    TITLE "TOEIC LR Kinnojyukugo_10_012"
    INDEX 01 00:11:20
  TRACK 13 AUDIO
    TITLE "TOEIC LR Kinnojyukugo_10_013"
    INDEX 01 00:13:72
  TRACK 14 AUDIO
    TITLE "TOEIC LR Kinnojyukugo_10_014"
    INDEX 01 00:14:73
  TRACK 15 AUDIO
    TITLE "TOEIC LR Kinnojyukugo_10_015"
    INDEX 01 00:16:23
  TRACK 16 AUDIO
    TITLE "TOEIC LR Kinnojyukugo_10_016"
    INDEX 01 00:16:62
  TRACK 17 AUDIO
    TITLE "TOEIC LR Kinnojyukugo_10_017"
    INDEX 01 00:18:71
  TRACK 18 AUDIO
    TITLE "TOEIC LR Kinnojyukugo_10_018"
    INDEX 01 00:19:72
  TRACK 19 AUDIO
    TITLE "TOEIC LR Kinnojyukugo_10_019"
    INDEX 01 00:21:20
  TRACK 20 AUDIO
    TITLE "TOEIC LR Kinnojyukugo_10_020"
    INDEX 01 00:21:59
  TRACK 21 AUDIO
    TITLE "TOEIC LR Kinnojyukugo_10_021"
    INDEX 01 00:24:05
  TRACK 22 AUDIO
    TITLE "TOEIC LR Kinnojyukugo_10_022"
    INDEX 01 00:25:04
  TRACK 23 AUDIO
    TITLE "TOEIC LR Kinnojyukugo_10_023"
    INDEX 01 00:26:31
  TRACK 24 AUDIO
    TITLE "TOEIC LR Kinnojyukugo_10_024"
    INDEX 01 00:26:66
  TRACK 25 AUDIO
    TITLE "TOEIC LR Kinnojyukugo_10_025"
    INDEX 01 00:29:57
  TRACK 26 AUDIO
    TITLE "TOEIC LR Kinnojyukugo_10_026"
    INDEX 01 00:30:60
  TRACK 27 AUDIO
    TITLE "TOEIC LR Kinnojyukugo_10_027"
    INDEX 01 00:32:10
  TRACK 28 AUDIO
    TITLE "TOEIC LR Kinnojyukugo_10_028"
    INDEX 01 00:32:48
  TRACK 29 AUDIO
    TITLE "TOEIC LR Kinnojyukugo_10_029"
    INDEX 01 00:34:27
  TRACK 30 AUDIO
    TITLE "TOEIC LR Kinnojyukugo_10_030"
    INDEX 01 00:35:28
  TRACK 31 AUDIO
    TITLE "TOEIC LR Kinnojyukugo_10_031"
    INDEX 01 00:36:63
  TRACK 32 AUDIO
    TITLE "TOEIC LR Kinnojyukugo_10_032"
    INDEX 01 00:37:27
  TRACK 33 AUDIO
    TITLE "TOEIC LR Kinnojyukugo_10_033"
    INDEX 01 00:39:59
  TRACK 34 AUDIO
    TITLE "TOEIC LR Kinnojyukugo_10_034"
    INDEX 01 00:40:65
  TRACK 35 AUDIO
    TITLE "TOEIC LR Kinnojyukugo_10_035"
    INDEX 01 00:42:05
  TRACK 36 AUDIO
    TITLE "TOEIC LR Kinnojyukugo_10_036"
    INDEX 01 00:42:44
  TRACK 37 AUDIO
    TITLE "TOEIC LR Kinnojyukugo_10_037"
    INDEX 01 00:44:12
  TRACK 38 AUDIO
    TITLE "TOEIC LR Kinnojyukugo_10_038"
    INDEX 01 00:45:13
  TRACK 39 AUDIO
    TITLE "TOEIC LR Kinnojyukugo_10_039"
    INDEX 01 00:46:55
  TRACK 40 AUDIO
    TITLE "TOEIC LR Kinnojyukugo_10_040"
    INDEX 01 00:47:27
  TRACK 41 AUDIO
    TITLE "TOEIC LR Kinnojyukugo_10_041"
    INDEX 01 00:49:32
  TRACK 42 AUDIO
    TITLE "TOEIC LR Kinnojyukugo_10_042"
    INDEX 01 00:50:32
  TRACK 43 AUDIO
    TITLE "TOEIC LR Kinnojyukugo_10_043"
    INDEX 01 00:52:03
  TRACK 44 AUDIO
    TITLE "TOEIC LR Kinnojyukugo_10_044"
    INDEX 01 00:52:40
  TRACK 45 AUDIO
    TITLE "TOEIC LR Kinnojyukugo_10_045"
    INDEX 01 00:54:55
  TRACK 46 AUDIO
    TITLE "TOEIC LR Kinnojyukugo_10_046"
    INDEX 01 00:55:56
  TRACK 47 AUDIO
    TITLE "TOEIC LR Kinnojyukugo_10_047"
    INDEX 01 00:57:20
  TRACK 48 AUDIO
    TITLE "TOEIC LR Kinnojyukugo_10_048"
    INDEX 01 00:57:57
  TRACK 49 AUDIO
    TITLE "TOEIC LR Kinnojyukugo_10_049"
    INDEX 01 01:01:04
  TRACK 50 AUDIO
    TITLE "TOEIC LR Kinnojyukugo_10_050"
    INDEX 01 01:02:04
  TRACK 51 AUDIO
    TITLE "TOEIC LR Kinnojyukugo_10_051"
    INDEX 01 01:03:27
  TRACK 52 AUDIO
    TITLE "TOEIC LR Kinnojyukugo_10_052"
    INDEX 01 01:03:68
  TRACK 53 AUDIO
    TITLE "TOEIC LR Kinnojyukugo_10_053"
    INDEX 01 01:06:23
  TRACK 54 AUDIO
    TITLE "TOEIC LR Kinnojyukugo_10_054"
    INDEX 01 01:07:22
  TRACK 55 AUDIO
    TITLE "TOEIC LR Kinnojyukugo_10_055"
    INDEX 01 01:08:43
  TRACK 56 AUDIO
    TITLE "TOEIC LR Kinnojyukugo_10_056"
    INDEX 01 01:09:10
  TRACK 57 AUDIO
    TITLE "TOEIC LR Kinnojyukugo_10_057"
    INDEX 01 01:11:30
  TRACK 58 AUDIO
    TITLE "TOEIC LR Kinnojyukugo_10_058"
    INDEX 01 01:12:29
  TRACK 59 AUDIO
    TITLE "TOEIC LR Kinnojyukugo_10_059"
    INDEX 01 01:13:46
  TRACK 60 AUDIO
    TITLE "TOEIC LR Kinnojyukugo_10_060"
    INDEX 01 01:14:09
  TRACK 61 AUDIO
    TITLE "TOEIC LR Kinnojyukugo_10_061"
    INDEX 01 01:16:72
  TRACK 62 AUDIO
    TITLE "TOEIC LR Kinnojyukugo_10_062"
    INDEX 01 01:17:72
  TRACK 63 AUDIO
    TITLE "TOEIC LR Kinnojyukugo_10_063"
    INDEX 01 01:19:06
  TRACK 64 AUDIO
    TITLE "TOEIC LR Kinnojyukugo_10_064"
    INDEX 01 01:19:37
  TRACK 65 AUDIO
    TITLE "TOEIC LR Kinnojyukugo_10_065"
    INDEX 01 01:21:36
  TRACK 66 AUDIO
    TITLE "TOEIC LR Kinnojyukugo_10_066"
    INDEX 01 01:22:38
  TRACK 67 AUDIO
    TITLE "TOEIC LR Kinnojyukugo_10_067"
    INDEX 01 01:23:51
  TRACK 68 AUDIO
    TITLE "TOEIC LR Kinnojyukugo_10_068"
    INDEX 01 01:24:15
  TRACK 69 AUDIO
    TITLE "TOEIC LR Kinnojyukugo_10_069"
    INDEX 01 01:27:21
  TRACK 70 AUDIO
    TITLE "TOEIC LR Kinnojyukugo_10_070"
    INDEX 01 01:28:24
  TRACK 71 AUDIO
    TITLE "TOEIC LR Kinnojyukugo_10_071"
    INDEX 01 01:29:32
  TRACK 72 AUDIO
    TITLE "TOEIC LR Kinnojyukugo_10_072"
    INDEX 01 01:29:69
  TRACK 73 AUDIO
    TITLE "TOEIC LR Kinnojyukugo_10_073"
    INDEX 01 01:32:22
  TRACK 74 AUDIO
    TITLE "TOEIC LR Kinnojyukugo_10_074"
    INDEX 01 01:33:22
  TRACK 75 AUDIO
    TITLE "TOEIC LR Kinnojyukugo_10_075"
    INDEX 01 01:34:56
  TRACK 76 AUDIO
    TITLE "TOEIC LR Kinnojyukugo_10_076"
    INDEX 01 01:35:21
  TRACK 77 AUDIO
    TITLE "TOEIC LR Kinnojyukugo_10_077"
    INDEX 01 01:37:23
  TRACK 78 AUDIO
    TITLE "TOEIC LR Kinnojyukugo_10_078"
    INDEX 01 01:38:25
  TRACK 79 AUDIO
    TITLE "TOEIC LR Kinnojyukugo_10_079"
    INDEX 01 01:39:73
  TRACK 80 AUDIO
    TITLE "TOEIC LR Kinnojyukugo_10_080"
    INDEX 01 01:40:36
  TRACK 81 AUDIO
    TITLE "TOEIC LR Kinnojyukugo_10_081"
    INDEX 01 01:43:32
  TRACK 82 AUDIO
    TITLE "TOEIC LR Kinnojyukugo_10_082"
    INDEX 01 01:44:31
  TRACK 83 AUDIO
    TITLE "TOEIC LR Kinnojyukugo_10_083"
    INDEX 01 01:45:72
  TRACK 84 AUDIO
    TITLE "TOEIC LR Kinnojyukugo_10_084"
    INDEX 01 01:46:38
  TRACK 85 AUDIO
    TITLE "TOEIC LR Kinnojyukugo_10_085"
    INDEX 01 01:48:33
  TRACK 86 AUDIO
    TITLE "TOEIC LR Kinnojyukugo_10_086"
    INDEX 01 01:49:34
  TRACK 87 AUDIO
    TITLE "TOEIC LR Kinnojyukugo_10_087"
    INDEX 01 01:50:54
  TRACK 88 AUDIO
    TITLE "TOEIC LR Kinnojyukugo_10_088"
    INDEX 01 01:51:18
  TRACK 89 AUDIO
    TITLE "TOEIC LR Kinnojyukugo_10_089"
    INDEX 01 01:53:17
  TRACK 90 AUDIO
    TITLE "TOEIC LR Kinnojyukugo_10_090"
    INDEX 01 01:54:16
  TRACK 91 AUDIO
    TITLE "TOEIC LR Kinnojyukugo_10_091"
    INDEX 01 01:55:61
  TRACK 92 AUDIO
    TITLE "TOEIC LR Kinnojyukugo_10_092"
    INDEX 01 01:56:23
  TRACK 93 AUDIO
    TITLE "TOEIC LR Kinnojyukugo_10_093"
    INDEX 01 01:59:09
  TRACK 94 AUDIO
    TITLE "TOEIC LR Kinnojyukugo_10_094"
    INDEX 01 02:00:11
  TRACK 95 AUDIO
    TITLE "TOEIC LR Kinnojyukugo_10_095"
    INDEX 01 02:01:18
  TRACK 96 AUDIO
    TITLE "TOEIC LR Kinnojyukugo_10_096"
    INDEX 01 02:01:57
  TRACK 97 AUDIO
    TITLE "TOEIC LR Kinnojyukugo_10_097"
    INDEX 01 02:04:20
  TRACK 98 AUDIO
    TITLE "TOEIC LR Kinnojyukugo_10_098"
    INDEX 01 02:05:22
  TRACK 99 AUDIO
    TITLE "TOEIC LR Kinnojyukugo_10_099"
    INDEX 01 02:06:74
  TRACK 100 AUDIO
    TITLE "TOEIC LR Kinnojyukugo_10_100"
    INDEX 01 02:07:36
  TRACK 101 AUDIO
    TITLE "TOEIC LR Kinnojyukugo_10_101"
    INDEX 01 02:10:31
  TRACK 102 AUDIO
    TITLE "TOEIC LR Kinnojyukugo_10_102"
    INDEX 01 02:11:30
  TRACK 103 AUDIO
    TITLE "TOEIC LR Kinnojyukugo_10_103"
    INDEX 01 02:12:47
  TRACK 104 AUDIO
    TITLE "TOEIC LR Kinnojyukugo_10_104"
    INDEX 01 02:13:11
  TRACK 105 AUDIO
    TITLE "TOEIC LR Kinnojyukugo_10_105"
    INDEX 01 02:14:58
  TRACK 106 AUDIO
    TITLE "TOEIC LR Kinnojyukugo_10_106"
    INDEX 01 02:15:57
  TRACK 107 AUDIO
    TITLE "TOEIC LR Kinnojyukugo_10_107"
    INDEX 01 02:17:19
  TRACK 108 AUDIO
    TITLE "TOEIC LR Kinnojyukugo_10_108"
    INDEX 01 02:17:54
  TRACK 109 AUDIO
    TITLE "TOEIC LR Kinnojyukugo_10_109"
    INDEX 01 02:20:21
  TRACK 110 AUDIO
    TITLE "TOEIC LR Kinnojyukugo_10_110"
    INDEX 01 02:21:23
  TRACK 111 AUDIO
    TITLE "TOEIC LR Kinnojyukugo_10_111"
    INDEX 01 02:22:69
  TRACK 112 AUDIO
    TITLE "TOEIC LR Kinnojyukugo_10_112"
    INDEX 01 02:23:31
  TRACK 113 AUDIO
    TITLE "TOEIC LR Kinnojyukugo_10_113"
    INDEX 01 02:26:47
  TRACK 114 AUDIO
    TITLE "TOEIC LR Kinnojyukugo_10_114"
    INDEX 01 02:27:47
  TRACK 115 AUDIO
    TITLE "TOEIC LR Kinnojyukugo_10_115"
    INDEX 01 02:29:03
  TRACK 116 AUDIO
    TITLE "TOEIC LR Kinnojyukugo_10_116"
    INDEX 01 02:29:40
  TRACK 117 AUDIO
    TITLE "TOEIC LR Kinnojyukugo_10_117"
    INDEX 01 02:32:03
  TRACK 118 AUDIO
    TITLE "TOEIC LR Kinnojyukugo_10_118"
    INDEX 01 02:33:02
  TRACK 119 AUDIO
    TITLE "TOEIC LR Kinnojyukugo_10_119"
    INDEX 01 02:35:21
  TRACK 120 AUDIO
    TITLE "TOEIC LR Kinnojyukugo_10_120"
    INDEX 01 02:35:62
  TRACK 121 AUDIO
    TITLE "TOEIC LR Kinnojyukugo_10_121"
    INDEX 01 02:38:13
  TRACK 122 AUDIO
    TITLE "TOEIC LR Kinnojyukugo_10_122"
    INDEX 01 02:39:15
  TRACK 123 AUDIO
    TITLE "TOEIC LR Kinnojyukugo_10_123"
    INDEX 01 02:40:30
  TRACK 124 AUDIO
    TITLE "TOEIC LR Kinnojyukugo_10_124"
    INDEX 01 02:40:73
  TRACK 125 AUDIO
    TITLE "TOEIC LR Kinnojyukugo_10_125"
    INDEX 01 02:44:49
  TRACK 126 AUDIO
    TITLE "TOEIC LR Kinnojyukugo_10_126"
    INDEX 01 02:45:51
  TRACK 127 AUDIO
    TITLE "TOEIC LR Kinnojyukugo_10_127"
    INDEX 01 02:47:18
  TRACK 128 AUDIO
    TITLE "TOEIC LR Kinnojyukugo_10_128"
    INDEX 01 02:47:55
  TRACK 129 AUDIO
    TITLE "TOEIC LR Kinnojyukugo_10_129"
    INDEX 01 02:50:19
  TRACK 130 AUDIO
    TITLE "TOEIC LR Kinnojyukugo_10_130"
    INDEX 01 02:51:20
  TRACK 131 AUDIO
    TITLE "TOEIC LR Kinnojyukugo_10_131"
    INDEX 01 02:52:53
  TRACK 132 AUDIO
    TITLE "TOEIC LR Kinnojyukugo_10_132"
    INDEX 01 02:53:15
  TRACK 133 AUDIO
    TITLE "TOEIC LR Kinnojyukugo_10_133"
    INDEX 01 02:55:10
  TRACK 134 AUDIO
    TITLE "TOEIC LR Kinnojyukugo_10_134"
    INDEX 01 02:56:09
  TRACK 135 AUDIO
    TITLE "TOEIC LR Kinnojyukugo_10_135"
    INDEX 01 02:57:34
  TRACK 136 AUDIO
    TITLE "TOEIC LR Kinnojyukugo_10_136"
    INDEX 01 02:57:71
  TRACK 137 AUDIO
    TITLE "TOEIC LR Kinnojyukugo_10_137"
    INDEX 01 02:59:51
  TRACK 138 AUDIO
    TITLE "TOEIC LR Kinnojyukugo_10_138"
    INDEX 01 03:00:52
  TRACK 139 AUDIO
    TITLE "TOEIC LR Kinnojyukugo_10_139"
    INDEX 01 03:01:73
  TRACK 140 AUDIO
    TITLE "TOEIC LR Kinnojyukugo_10_140"
    INDEX 01 03:02:37
  TRACK 141 AUDIO
    TITLE "TOEIC LR Kinnojyukugo_10_141"
    INDEX 01 03:05:12
  TRACK 142 AUDIO
    TITLE "TOEIC LR Kinnojyukugo_10_142"
    INDEX 01 03:06:12
  TRACK 143 AUDIO
    TITLE "TOEIC LR Kinnojyukugo_10_143"
    INDEX 01 03:07:37
  TRACK 144 AUDIO
    TITLE "TOEIC LR Kinnojyukugo_10_144"
    INDEX 01 03:07:74
  TRACK 145 AUDIO
    TITLE "TOEIC LR Kinnojyukugo_10_145"
    INDEX 01 03:10:25
  TRACK 146 AUDIO
    TITLE "TOEIC LR Kinnojyukugo_10_146"
    INDEX 01 03:11:25
  TRACK 147 AUDIO
    TITLE "TOEIC LR Kinnojyukugo_10_147"
    INDEX 01 03:12:44
  TRACK 148 AUDIO
    TITLE "TOEIC LR Kinnojyukugo_10_148"
    INDEX 01 03:13:04
  TRACK 149 AUDIO
    TITLE "TOEIC LR Kinnojyukugo_10_149"
    INDEX 01 03:15:32
  TRACK 150 AUDIO
    TITLE "TOEIC LR Kinnojyukugo_10_150"
    INDEX 01 03:16:34
  TRACK 151 AUDIO
    TITLE "TOEIC LR Kinnojyukugo_10_151"
    INDEX 01 03:17:27
  TRACK 152 AUDIO
    TITLE "TOEIC LR Kinnojyukugo_10_152"
    INDEX 01 03:17:74
  TRACK 153 AUDIO
    TITLE "TOEIC LR Kinnojyukugo_10_153"
    INDEX 01 03:20:55
  TRACK 154 AUDIO
    TITLE "TOEIC LR Kinnojyukugo_10_154"
    INDEX 01 03:21:68
  TRACK 155 AUDIO
    TITLE "TOEIC LR Kinnojyukugo_10_155"
    INDEX 01 03:23:10
  TRACK 156 AUDIO
    TITLE "TOEIC LR Kinnojyukugo_10_156"
    INDEX 01 03:23:47
  TRACK 157 AUDIO
    TITLE "TOEIC LR Kinnojyukugo_10_157"
    INDEX 01 03:27:20
  TRACK 158 AUDIO
    TITLE "TOEIC LR Kinnojyukugo_10_158"
    INDEX 01 03:28:23
  TRACK 159 AUDIO
    TITLE "TOEIC LR Kinnojyukugo_10_159"
    INDEX 01 03:29:34
  TRACK 160 AUDIO
    TITLE "TOEIC LR Kinnojyukugo_10_160"
    INDEX 01 03:30:00
  TRACK 161 AUDIO
    TITLE "TOEIC LR Kinnojyukugo_10_161"
    INDEX 01 03:32:19
  TRACK 162 AUDIO
    TITLE "TOEIC LR Kinnojyukugo_10_162"
    INDEX 01 03:33:20
  TRACK 163 AUDIO
    TITLE "TOEIC LR Kinnojyukugo_10_163"
    INDEX 01 03:34:31
  TRACK 164 AUDIO
    TITLE "TOEIC LR Kinnojyukugo_10_164"
    INDEX 01 03:34:69
  TRACK 165 AUDIO
    TITLE "TOEIC LR Kinnojyukugo_10_165"
    INDEX 01 03:37:26
  TRACK 166 AUDIO
    TITLE "TOEIC LR Kinnojyukugo_10_166"
    INDEX 01 03:38:25
  TRACK 167 AUDIO
    TITLE "TOEIC LR Kinnojyukugo_10_167"
    INDEX 01 03:39:39
  TRACK 168 AUDIO
    TITLE "TOEIC LR Kinnojyukugo_10_168"
    INDEX 01 03:39:74
  TRACK 169 AUDIO
    TITLE "TOEIC LR Kinnojyukugo_10_169"
    INDEX 01 03:42:11
  TRACK 170 AUDIO
    TITLE "TOEIC LR Kinnojyukugo_10_170"
    INDEX 01 03:43:15
  TRACK 171 AUDIO
    TITLE "TOEIC LR Kinnojyukugo_10_171"
    INDEX 01 03:45:18
  TRACK 172 AUDIO
    TITLE "TOEIC LR Kinnojyukugo_10_172"
    INDEX 01 03:45:57
  TRACK 173 AUDIO
    TITLE "TOEIC LR Kinnojyukugo_10_173"
    INDEX 01 03:48:26
  TRACK 174 AUDIO
    TITLE "TOEIC LR Kinnojyukugo_10_174"
    INDEX 01 03:49:21
  TRACK 175 AUDIO
    TITLE "TOEIC LR Kinnojyukugo_10_175"
    INDEX 01 03:50:46
  TRACK 176 AUDIO
    TITLE "TOEIC LR Kinnojyukugo_10_176"
    INDEX 01 03:51:08
  TRACK 177 AUDIO
    TITLE "TOEIC LR Kinnojyukugo_10_177"
    INDEX 01 03:53:68
  TRACK 178 AUDIO
    TITLE "TOEIC LR Kinnojyukugo_10_178"
    INDEX 01 03:54:69
  TRACK 179 AUDIO
    TITLE "TOEIC LR Kinnojyukugo_10_179"
    INDEX 01 03:56:33
  TRACK 180 AUDIO
    TITLE "TOEIC LR Kinnojyukugo_10_180"
    INDEX 01 03:56:72
  TRACK 181 AUDIO
    TITLE "TOEIC LR Kinnojyukugo_10_181"
    INDEX 01 03:59:18
  TRACK 182 AUDIO
    TITLE "TOEIC LR Kinnojyukugo_10_182"
    INDEX 01 04:00:17
  TRACK 183 AUDIO
    TITLE "TOEIC LR Kinnojyukugo_10_183"
    INDEX 01 04:01:38
  TRACK 184 AUDIO
    TITLE "TOEIC LR Kinnojyukugo_10_184"
    INDEX 01 04:02:02
  TRACK 185 AUDIO
    TITLE "TOEIC LR Kinnojyukugo_10_185"
    INDEX 01 04:05:07
  TRACK 186 AUDIO
    TITLE "TOEIC LR Kinnojyukugo_10_186"
    INDEX 01 04:06:08
  TRACK 187 AUDIO
    TITLE "TOEIC LR Kinnojyukugo_10_187"
    INDEX 01 04:07:43
  TRACK 188 AUDIO
    TITLE "TOEIC LR Kinnojyukugo_10_188"
    INDEX 01 04:07:72
  TRACK 189 AUDIO
    TITLE "TOEIC LR Kinnojyukugo_10_189"
    INDEX 01 04:09:40
  TRACK 190 AUDIO
    TITLE "TOEIC LR Kinnojyukugo_10_190"
    INDEX 01 04:10:41
  TRACK 191 AUDIO
    TITLE "TOEIC LR Kinnojyukugo_10_191"
    INDEX 01 04:11:70
  TRACK 192 AUDIO
    TITLE "TOEIC LR Kinnojyukugo_10_192"
    INDEX 01 04:12:36
  TRACK 193 AUDIO
    TITLE "TOEIC LR Kinnojyukugo_10_193"
    INDEX 01 04:16:08
  TRACK 194 AUDIO
    TITLE "TOEIC LR Kinnojyukugo_10_194"
    INDEX 01 04:17:10
  TRACK 195 AUDIO
    TITLE "TOEIC LR Kinnojyukugo_10_195"
    INDEX 01 04:18:37
  TRACK 196 AUDIO
    TITLE "TOEIC LR Kinnojyukugo_10_196"
    INDEX 01 04:18:74
  TRACK 197 AUDIO
    TITLE "TOEIC LR Kinnojyukugo_10_197"
    INDEX 01 04:21:02
  TRACK 198 AUDIO
    TITLE "TOEIC LR Kinnojyukugo_10_198"
    INDEX 01 04:22:03
  TRACK 199 AUDIO
    TITLE "TOEIC LR Kinnojyukugo_10_199"
    INDEX 01 04:23:63
  TRACK 200 AUDIO
    TITLE "TOEIC LR Kinnojyukugo_10_200"
    INDEX 01 04:24:24
  TRACK 201 AUDIO
    TITLE "TOEIC LR Kinnojyukugo_10_201"
    INDEX 01 04:27:14
  TRACK 202 AUDIO
    TITLE "TOEIC LR Kinnojyukugo_10_202"
    INDEX 01 04:28:15
  TRACK 203 AUDIO
    TITLE "TOEIC LR Kinnojyukugo_10_203"
    INDEX 01 04:29:58
  TRACK 204 AUDIO
    TITLE "TOEIC LR Kinnojyukugo_10_204"
    INDEX 01 04:30:28
  TRACK 205 AUDIO
    TITLE "TOEIC LR Kinnojyukugo_10_205"
    INDEX 01 04:32:48
  TRACK 206 AUDIO
    TITLE "TOEIC LR Kinnojyukugo_10_206"
    INDEX 01 04:33:48
  TRACK 207 AUDIO
    TITLE "TOEIC LR Kinnojyukugo_10_207"
    INDEX 01 04:35:15
  TRACK 208 AUDIO
    TITLE "TOEIC LR Kinnojyukugo_10_208"
    INDEX 01 04:35:53
  TRACK 209 AUDIO
    TITLE "TOEIC LR Kinnojyukugo_10_209"
    INDEX 01 04:38:20
  TRACK 210 AUDIO
    TITLE "TOEIC LR Kinnojyukugo_10_210"
    INDEX 01 04:39:23
  TRACK 211 AUDIO
    TITLE "TOEIC LR Kinnojyukugo_10_211"
    INDEX 01 04:40:64
  TRACK 212 AUDIO
    TITLE "TOEIC LR Kinnojyukugo_10_212"
    INDEX 01 04:41:28
  TRACK 213 AUDIO
    TITLE "TOEIC LR Kinnojyukugo_10_213"
    INDEX 01 04:45:02
  TRACK 214 AUDIO
    TITLE "TOEIC LR Kinnojyukugo_10_214"
    INDEX 01 04:46:09
  TRACK 215 AUDIO
    TITLE "TOEIC LR Kinnojyukugo_10_215"
    INDEX 01 04:48:24
  TRACK 216 AUDIO
    TITLE "TOEIC LR Kinnojyukugo_10_216"
    INDEX 01 04:48:61
  TRACK 217 AUDIO
    TITLE "TOEIC LR Kinnojyukugo_10_217"
    INDEX 01 04:51:65
  TRACK 218 AUDIO
    TITLE "TOEIC LR Kinnojyukugo_10_218"
    INDEX 01 04:52:65
  TRACK 219 AUDIO
    TITLE "TOEIC LR Kinnojyukugo_10_219"
    INDEX 01 04:54:29
  TRACK 220 AUDIO
    TITLE "TOEIC LR Kinnojyukugo_10_220"
    INDEX 01 04:54:70
  TRACK 221 AUDIO
    TITLE "TOEIC LR Kinnojyukugo_10_221"
    INDEX 01 04:57:33
  TRACK 222 AUDIO
    TITLE "TOEIC LR Kinnojyukugo_10_222"
    INDEX 01 04:58:40
  TRACK 223 AUDIO
    TITLE "TOEIC LR Kinnojyukugo_10_223"
    INDEX 01 05:00:25
  TRACK 224 AUDIO
    TITLE "TOEIC LR Kinnojyukugo_10_224"
    INDEX 01 05:00:62
  TRACK 225 AUDIO
    TITLE "TOEIC LR Kinnojyukugo_10_225"
    INDEX 01 05:03:49
  TRACK 226 AUDIO
    TITLE "TOEIC LR Kinnojyukugo_10_226"
    INDEX 01 05:04:45
  TRACK 227 AUDIO
    TITLE "TOEIC LR Kinnojyukugo_10_227"
    INDEX 01 05:06:20
  TRACK 228 AUDIO
    TITLE "TOEIC LR Kinnojyukugo_10_228"
    INDEX 01 05:06:57
  TRACK 229 AUDIO
    TITLE "TOEIC LR Kinnojyukugo_10_229"
    INDEX 01 05:09:44
  TRACK 230 AUDIO
    TITLE "TOEIC LR Kinnojyukugo_10_230"
    INDEX 01 05:10:43
  TRACK 231 AUDIO
    TITLE "TOEIC LR Kinnojyukugo_10_231"
    INDEX 01 05:12:07
  TRACK 232 AUDIO
    TITLE "TOEIC LR Kinnojyukugo_10_232"
    INDEX 01 05:12:48
  TRACK 233 AUDIO
    TITLE "TOEIC LR Kinnojyukugo_10_233"
    INDEX 01 05:14:63
  TRACK 234 AUDIO
    TITLE "TOEIC LR Kinnojyukugo_10_234"
    INDEX 01 05:15:68
  TRACK 235 AUDIO
    TITLE "TOEIC LR Kinnojyukugo_10_235"
    INDEX 01 05:17:16
  TRACK 236 AUDIO
    TITLE "TOEIC LR Kinnojyukugo_10_236"
    INDEX 01 05:17:57
  TRACK 237 AUDIO
    TITLE "TOEIC LR Kinnojyukugo_10_237"
    INDEX 01 05:20:16
  TRACK 238 AUDIO
    TITLE "TOEIC LR Kinnojyukugo_10_238"
    INDEX 01 05:21:27
  TRACK 239 AUDIO
    TITLE "TOEIC LR Kinnojyukugo_10_239"
    INDEX 01 05:22:54
  TRACK 240 AUDIO
    TITLE "TOEIC LR Kinnojyukugo_10_240"
    INDEX 01 05:23:16
  TRACK 241 AUDIO
    TITLE "TOEIC LR Kinnojyukugo_10_241"
    INDEX 01 05:25:51
  TRACK 242 AUDIO
    TITLE "TOEIC LR Kinnojyukugo_10_242"
    INDEX 01 05:26:50
  TRACK 243 AUDIO
    TITLE "TOEIC LR Kinnojyukugo_10_243"
    INDEX 01 05:28:16
  TRACK 244 AUDIO
    TITLE "TOEIC LR Kinnojyukugo_10_244"
    INDEX 01 05:28:53
  TRACK 245 AUDIO
    TITLE "TOEIC LR Kinnojyukugo_10_245"
    INDEX 01 05:31:43
  TRACK 246 AUDIO
    TITLE "TOEIC LR Kinnojyukugo_10_246"
    INDEX 01 05:32:47
  TRACK 247 AUDIO
    TITLE "TOEIC LR Kinnojyukugo_10_247"
    INDEX 01 05:34:28
  TRACK 248 AUDIO
    TITLE "TOEIC LR Kinnojyukugo_10_248"
    INDEX 01 05:34:67
  TRACK 249 AUDIO
    TITLE "TOEIC LR Kinnojyukugo_10_249"
    INDEX 01 05:38:04
  TRACK 250 AUDIO
    TITLE "TOEIC LR Kinnojyukugo_10_250"
    INDEX 01 05:39:04
  TRACK 251 AUDIO
    TITLE "TOEIC LR Kinnojyukugo_10_251"
    INDEX 01 05:40:31
  TRACK 252 AUDIO
    TITLE "TOEIC LR Kinnojyukugo_10_252"
    INDEX 01 05:40:70
  TRACK 253 AUDIO
    TITLE "TOEIC LR Kinnojyukugo_10_253"
    INDEX 01 05:44:01
  TRACK 254 AUDIO
    TITLE "TOEIC LR Kinnojyukugo_10_254"
    INDEX 01 05:45:00
  TRACK 255 AUDIO
    TITLE "TOEIC LR Kinnojyukugo_10_255"
    INDEX 01 05:46:02
  TRACK 256 AUDIO
    TITLE "TOEIC LR Kinnojyukugo_10_256"
    INDEX 01 05:46:41
  TRACK 257 AUDIO
    TITLE "TOEIC LR Kinnojyukugo_10_257"
    INDEX 01 05:49:33
  TRACK 258 AUDIO
    TITLE "TOEIC LR Kinnojyukugo_10_258"
    INDEX 01 05:50:33
  TRACK 259 AUDIO
    TITLE "TOEIC LR Kinnojyukugo_10_259"
    INDEX 01 05:51:44
  TRACK 260 AUDIO
    TITLE "TOEIC LR Kinnojyukugo_10_260"
    INDEX 01 05:52:10
  TRACK 261 AUDIO
    TITLE "TOEIC LR Kinnojyukugo_10_261"
    INDEX 01 05:53:51
  TRACK 262 AUDIO
    TITLE "TOEIC LR Kinnojyukugo_10_262"
    INDEX 01 05:54:52
  TRACK 263 AUDIO
    TITLE "TOEIC LR Kinnojyukugo_10_263"
    INDEX 01 05:56:53
  TRACK 264 AUDIO
    TITLE "TOEIC LR Kinnojyukugo_10_264"
    INDEX 01 05:57:17
  TRACK 265 AUDIO
    TITLE "TOEIC LR Kinnojyukugo_10_265"
    INDEX 01 06:00:41
  TRACK 266 AUDIO
    TITLE "TOEIC LR Kinnojyukugo_10_266"
    INDEX 01 06:01:43
  TRACK 267 AUDIO
    TITLE "TOEIC LR Kinnojyukugo_10_267"
    INDEX 01 06:03:12
  TRACK 268 AUDIO
    TITLE "TOEIC LR Kinnojyukugo_10_268"
    INDEX 01 06:03:53
  TRACK 269 AUDIO
    TITLE "TOEIC LR Kinnojyukugo_10_269"
    INDEX 01 06:06:57
  TRACK 270 AUDIO
    TITLE "TOEIC LR Kinnojyukugo_10_270"
    INDEX 01 06:07:57
  TRACK 271 AUDIO
    TITLE "TOEIC LR Kinnojyukugo_10_271"
    INDEX 01 06:09:13
  TRACK 272 AUDIO
    TITLE "TOEIC LR Kinnojyukugo_10_272"
    INDEX 01 06:09:54
  TRACK 273 AUDIO
    TITLE "TOEIC LR Kinnojyukugo_10_273"
    INDEX 01 06:12:37
  TRACK 274 AUDIO
    TITLE "TOEIC LR Kinnojyukugo_10_274"
    INDEX 01 06:13:38
  TRACK 275 AUDIO
    TITLE "TOEIC LR Kinnojyukugo_10_275"
    INDEX 01 06:14:63
  TRACK 276 AUDIO
    TITLE "TOEIC LR Kinnojyukugo_10_276"
    INDEX 01 06:15:27
  TRACK 277 AUDIO
    TITLE "TOEIC LR Kinnojyukugo_10_277"
    INDEX 01 06:18:19
  TRACK 278 AUDIO
    TITLE "TOEIC LR Kinnojyukugo_10_278"
    INDEX 01 06:19:19
  TRACK 279 AUDIO
    TITLE "TOEIC LR Kinnojyukugo_10_279"
    INDEX 01 06:22:11
  TRACK 280 AUDIO
    TITLE "TOEIC LR Kinnojyukugo_10_280"
    INDEX 01 06:22:51
  TRACK 281 AUDIO
    TITLE "TOEIC LR Kinnojyukugo_10_281"
    INDEX 01 06:25:25
  TRACK 282 AUDIO
    TITLE "TOEIC LR Kinnojyukugo_10_282"
    INDEX 01 06:26:27
  TRACK 283 AUDIO
    TITLE "TOEIC LR Kinnojyukugo_10_283"
    INDEX 01 06:28:36
  TRACK 284 AUDIO
    TITLE "TOEIC LR Kinnojyukugo_10_284"
    INDEX 01 06:29:00
  TRACK 285 AUDIO
    TITLE "TOEIC LR Kinnojyukugo_10_285"
    INDEX 01 06:32:00
  TRACK 286 AUDIO
    TITLE "TOEIC LR Kinnojyukugo_10_286"
    INDEX 01 06:32:74
  TRACK 287 AUDIO
    TITLE "TOEIC LR Kinnojyukugo_10_287"
    INDEX 01 06:34:20
  TRACK 288 AUDIO
    TITLE "TOEIC LR Kinnojyukugo_10_288"
    INDEX 01 06:34:60
  TRACK 289 AUDIO
    TITLE "TOEIC LR Kinnojyukugo_10_289"
    INDEX 01 06:37:64
  TRACK 290 AUDIO
    TITLE "TOEIC LR Kinnojyukugo_10_290"
    INDEX 01 06:38:65
  TRACK 291 AUDIO
    TITLE "TOEIC LR Kinnojyukugo_10_291"
    INDEX 01 06:40:23
  TRACK 292 AUDIO
    TITLE "TOEIC LR Kinnojyukugo_10_292"
    INDEX 01 06:40:60
  TRACK 293 AUDIO
    TITLE "TOEIC LR Kinnojyukugo_10_293"
    INDEX 01 06:43:39
  TRACK 294 AUDIO
    TITLE "TOEIC LR Kinnojyukugo_10_294"
    INDEX 01 06:44:44
  TRACK 295 AUDIO
    TITLE "TOEIC LR Kinnojyukugo_10_295"
    INDEX 01 06:46:35
  TRACK 296 AUDIO
    TITLE "TOEIC LR Kinnojyukugo_10_296"
    INDEX 01 06:47:00
  TRACK 297 AUDIO
    TITLE "TOEIC LR Kinnojyukugo_10_297"
    INDEX 01 06:49:51
  TRACK 298 AUDIO
    TITLE "TOEIC LR Kinnojyukugo_10_298"
    INDEX 01 06:50:51
  TRACK 299 AUDIO
    TITLE "TOEIC LR Kinnojyukugo_10_299"
    INDEX 01 06:52:26
  TRACK 300 AUDIO
    TITLE "TOEIC LR Kinnojyukugo_10_300"
    INDEX 01 06:52:65
  TRACK 301 AUDIO
    TITLE "TOEIC LR Kinnojyukugo_10_301"
    INDEX 01 06:55:58
  TRACK 302 AUDIO
    TITLE "TOEIC LR Kinnojyukugo_10_302"
    INDEX 01 06:56:57
  TRACK 303 AUDIO
    TITLE "TOEIC LR Kinnojyukugo_10_303"
    INDEX 01 06:58:17
  TRACK 304 AUDIO
    TITLE "TOEIC LR Kinnojyukugo_10_304"
    INDEX 01 06:58:52
  TRACK 305 AUDIO
    TITLE "TOEIC LR Kinnojyukugo_10_305"
    INDEX 01 07:01:62
  TRACK 306 AUDIO
    TITLE "TOEIC LR Kinnojyukugo_10_306"
    INDEX 01 07:02:56
  TRACK 307 AUDIO
    TITLE "TOEIC LR Kinnojyukugo_10_307"
    INDEX 01 07:04:14
  TRACK 308 AUDIO
    TITLE "TOEIC LR Kinnojyukugo_10_308"
    INDEX 01 07:04:49
  TRACK 309 AUDIO
    TITLE "TOEIC LR Kinnojyukugo_10_309"
    INDEX 01 07:06:71
  TRACK 310 AUDIO
    TITLE "TOEIC LR Kinnojyukugo_10_310"
    INDEX 01 07:07:73
  TRACK 311 AUDIO
    TITLE "TOEIC LR Kinnojyukugo_10_311"
    INDEX 01 07:09:25
  TRACK 312 AUDIO
    TITLE "TOEIC LR Kinnojyukugo_10_312"
    INDEX 01 07:09:62
  TRACK 313 AUDIO
    TITLE "TOEIC LR Kinnojyukugo_10_313"
    INDEX 01 07:12:33
  TRACK 314 AUDIO
    TITLE "TOEIC LR Kinnojyukugo_10_314"
    INDEX 01 07:13:32
  TRACK 315 AUDIO
    TITLE "TOEIC LR Kinnojyukugo_10_315"
    INDEX 01 07:14:69
  TRACK 316 AUDIO
    TITLE "TOEIC LR Kinnojyukugo_10_316"
    INDEX 01 07:15:31
  TRACK 317 AUDIO
    TITLE "TOEIC LR Kinnojyukugo_10_317"
    INDEX 01 07:18:06
  TRACK 318 AUDIO
    TITLE "TOEIC LR Kinnojyukugo_10_318"
    INDEX 01 07:19:07
  TRACK 319 AUDIO
    TITLE "TOEIC LR Kinnojyukugo_10_319"
    INDEX 01 07:20:24
  TRACK 320 AUDIO
    TITLE "TOEIC LR Kinnojyukugo_10_320"
    INDEX 01 07:20:58
  TRACK 321 AUDIO
    TITLE "TOEIC LR Kinnojyukugo_10_321"
    INDEX 01 07:22:45
  TRACK 322 AUDIO
    TITLE "TOEIC LR Kinnojyukugo_10_322"
    INDEX 01 07:23:48
  TRACK 323 AUDIO
    TITLE "TOEIC LR Kinnojyukugo_10_323"
    INDEX 01 07:24:73
  TRACK 324 AUDIO
    TITLE "TOEIC LR Kinnojyukugo_10_324"
    INDEX 01 07:25:37
  TRACK 325 AUDIO
    TITLE "TOEIC LR Kinnojyukugo_10_325"
    INDEX 01 07:29:69
  TRACK 326 AUDIO
    TITLE "TOEIC LR Kinnojyukugo_10_326"
    INDEX 01 07:30:70
  TRACK 327 AUDIO
    TITLE "TOEIC LR Kinnojyukugo_10_327"
    INDEX 01 07:32:26
  TRACK 328 AUDIO
    TITLE "TOEIC LR Kinnojyukugo_10_328"
    INDEX 01 07:32:65
  TRACK 329 AUDIO
    TITLE "TOEIC LR Kinnojyukugo_10_329"
    INDEX 01 07:35:12
  TRACK 330 AUDIO
    TITLE "TOEIC LR Kinnojyukugo_10_330"
    INDEX 01 07:36:16
  TRACK 331 AUDIO
    TITLE "TOEIC LR Kinnojyukugo_10_331"
    INDEX 01 07:37:66
  TRACK 332 AUDIO
    TITLE "TOEIC LR Kinnojyukugo_10_332"
    INDEX 01 07:38:26
  TRACK 333 AUDIO
    TITLE "TOEIC LR Kinnojyukugo_10_333"
    INDEX 01 07:41:38
  TRACK 334 AUDIO
    TITLE "TOEIC LR Kinnojyukugo_10_334"
    INDEX 01 07:42:38
  TRACK 335 AUDIO
    TITLE "TOEIC LR Kinnojyukugo_10_335"
    INDEX 01 07:43:73
  TRACK 336 AUDIO
    TITLE "TOEIC LR Kinnojyukugo_10_336"
    INDEX 01 07:44:35
  TRACK 337 AUDIO
    TITLE "TOEIC LR Kinnojyukugo_10_337"
    INDEX 01 07:47:27
  TRACK 338 AUDIO
    TITLE "TOEIC LR Kinnojyukugo_10_338"
    INDEX 01 07:48:29
  TRACK 339 AUDIO
    TITLE "TOEIC LR Kinnojyukugo_10_339"
    INDEX 01 07:49:59
  TRACK 340 AUDIO
    TITLE "TOEIC LR Kinnojyukugo_10_340"
    INDEX 01 07:50:22
  TRACK 341 AUDIO
    TITLE "TOEIC LR Kinnojyukugo_10_341"
    INDEX 01 07:52:40
  TRACK 342 AUDIO
    TITLE "TOEIC LR Kinnojyukugo_10_342"
    INDEX 01 07:53:40
  TRACK 343 AUDIO
    TITLE "TOEIC LR Kinnojyukugo_10_343"
    INDEX 01 07:55:21
  TRACK 344 AUDIO
    TITLE "TOEIC LR Kinnojyukugo_10_344"
    INDEX 01 07:55:60
  TRACK 345 AUDIO
    TITLE "TOEIC LR Kinnojyukugo_10_345"
    INDEX 01 07:58:41
  TRACK 346 AUDIO
    TITLE "TOEIC LR Kinnojyukugo_10_346"
    INDEX 01 07:59:42
  TRACK 347 AUDIO
    TITLE "TOEIC LR Kinnojyukugo_10_347"
    INDEX 01 08:01:27
  TRACK 348 AUDIO
    TITLE "TOEIC LR Kinnojyukugo_10_348"
    INDEX 01 08:01:67
  TRACK 349 AUDIO
    TITLE "TOEIC LR Kinnojyukugo_10_349"
    INDEX 01 08:05:57
  TRACK 350 AUDIO
    TITLE "TOEIC LR Kinnojyukugo_10_350"
    INDEX 01 08:06:56
  TRACK 351 AUDIO
    TITLE "TOEIC LR Kinnojyukugo_10_351"
    INDEX 01 08:08:20
  TRACK 352 AUDIO
    TITLE "TOEIC LR Kinnojyukugo_10_352"
    INDEX 01 08:08:57
  TRACK 353 AUDIO
    TITLE "TOEIC LR Kinnojyukugo_10_353"
    INDEX 01 08:12:33
  TRACK 354 AUDIO
    TITLE "TOEIC LR Kinnojyukugo_10_354"
    INDEX 01 08:13:34
  TRACK 355 AUDIO
    TITLE "TOEIC LR Kinnojyukugo_10_355"
    INDEX 01 08:14:48
  TRACK 356 AUDIO
    TITLE "TOEIC LR Kinnojyukugo_10_356"
    INDEX 01 08:15:12
  TRACK 357 AUDIO
    TITLE "TOEIC LR Kinnojyukugo_10_357"
    INDEX 01 08:18:42
  TRACK 358 AUDIO
    TITLE "TOEIC LR Kinnojyukugo_10_358"
    INDEX 01 08:19:43
  TRACK 359 AUDIO
    TITLE "TOEIC LR Kinnojyukugo_10_359"
    INDEX 01 08:20:42
  TRACK 360 AUDIO
    TITLE "TOEIC LR Kinnojyukugo_10_360"
    INDEX 01 08:21:16
  TRACK 361 AUDIO
    TITLE "TOEIC LR Kinnojyukugo_10_361"
    INDEX 01 08:23:39
  TRACK 362 AUDIO
    TITLE "TOEIC LR Kinnojyukugo_10_362"
    INDEX 01 08:24:40
  TRACK 363 AUDIO
    TITLE "TOEIC LR Kinnojyukugo_10_363"
    INDEX 01 08:25:67
  TRACK 364 AUDIO
    TITLE "TOEIC LR Kinnojyukugo_10_364"
    INDEX 01 08:26:29
  TRACK 365 AUDIO
    TITLE "TOEIC LR Kinnojyukugo_10_365"
    INDEX 01 08:29:47
  TRACK 366 AUDIO
    TITLE "TOEIC LR Kinnojyukugo_10_366"
    INDEX 01 08:30:47
  TRACK 367 AUDIO
    TITLE "TOEIC LR Kinnojyukugo_10_367"
    INDEX 01 08:31:68
  TRACK 368 AUDIO
    TITLE "TOEIC LR Kinnojyukugo_10_368"
    INDEX 01 08:32:34
  TRACK 369 AUDIO
    TITLE "TOEIC LR Kinnojyukugo_10_369"
    INDEX 01 08:36:36
  TRACK 370 AUDIO
    TITLE "TOEIC LR Kinnojyukugo_10_370"
    INDEX 01 08:37:35
  TRACK 371 AUDIO
    TITLE "TOEIC LR Kinnojyukugo_10_371"
    INDEX 01 08:38:56
  TRACK 372 AUDIO
    TITLE "TOEIC LR Kinnojyukugo_10_372"
    INDEX 01 08:39:20
  TRACK 373 AUDIO
    TITLE "TOEIC LR Kinnojyukugo_10_373"
    INDEX 01 08:42:58
  TRACK 374 AUDIO
    TITLE "TOEIC LR Kinnojyukugo_10_374"
    INDEX 01 08:43:57
  TRACK 375 AUDIO
    TITLE "TOEIC LR Kinnojyukugo_10_375"
    INDEX 01 08:44:74
  TRACK 376 AUDIO
    TITLE "TOEIC LR Kinnojyukugo_10_376"
    INDEX 01 08:45:36
  TRACK 377 AUDIO
    TITLE "TOEIC LR Kinnojyukugo_10_377"
    INDEX 01 08:47:47
  TRACK 378 AUDIO
    TITLE "TOEIC LR Kinnojyukugo_10_378"
    INDEX 01 08:48:45
  TRACK 379 AUDIO
    TITLE "TOEIC LR Kinnojyukugo_10_379"
    INDEX 01 08:49:68
  TRACK 380 AUDIO
    TITLE "TOEIC LR Kinnojyukugo_10_380"
    INDEX 01 08:50:30
  TRACK 381 AUDIO
    TITLE "TOEIC LR Kinnojyukugo_10_381"
    INDEX 01 08:53:10
  TRACK 382 AUDIO
    TITLE "TOEIC LR Kinnojyukugo_10_382"
    INDEX 01 08:54:10
  TRACK 383 AUDIO
    TITLE "TOEIC LR Kinnojyukugo_10_383"
    INDEX 01 08:55:25
  TRACK 384 AUDIO
    TITLE "TOEIC LR Kinnojyukugo_10_384"
    INDEX 01 08:55:62
  TRACK 385 AUDIO
    TITLE "TOEIC LR Kinnojyukugo_10_385"
    INDEX 01 08:59:66
  TRACK 386 AUDIO
    TITLE "TOEIC LR Kinnojyukugo_10_386"
    INDEX 01 09:00:67
  TRACK 387 AUDIO
    TITLE "TOEIC LR Kinnojyukugo_10_387"
    INDEX 01 09:02:23
  TRACK 388 AUDIO
    TITLE "TOEIC LR Kinnojyukugo_10_388"
    INDEX 01 09:02:60
  TRACK 389 AUDIO
    TITLE "TOEIC LR Kinnojyukugo_10_389"
    INDEX 01 09:06:07
  TRACK 390 AUDIO
    TITLE "TOEIC LR Kinnojyukugo_10_390"
    INDEX 01 09:07:15
  TRACK 391 AUDIO
    TITLE "TOEIC LR Kinnojyukugo_10_391"
    INDEX 01 09:08:36
  TRACK 392 AUDIO
    TITLE "TOEIC LR Kinnojyukugo_10_392"
    INDEX 01 09:08:73
  TRACK 393 AUDIO
    TITLE "TOEIC LR Kinnojyukugo_10_393"
    INDEX 01 09:10:74
  TRACK 394 AUDIO
    TITLE "TOEIC LR Kinnojyukugo_10_394"
    INDEX 01 09:12:00
  TRACK 395 AUDIO
    TITLE "TOEIC LR Kinnojyukugo_10_395"
    INDEX 01 09:13:19
  TRACK 396 AUDIO
    TITLE "TOEIC LR Kinnojyukugo_10_396"
    INDEX 01 09:13:56
  TRACK 397 AUDIO
    TITLE "TOEIC LR Kinnojyukugo_10_397"
    INDEX 01 09:16:49
  TRACK 398 AUDIO
    TITLE "TOEIC LR Kinnojyukugo_10_398"
    INDEX 01 09:17:46
  TRACK 399 AUDIO
    TITLE "TOEIC LR Kinnojyukugo_10_399"
    INDEX 01 09:19:06
  TRACK 400 AUDIO
    TITLE "TOEIC LR Kinnojyukugo_10_400"
    INDEX 01 09:19:41
  TRACK 401 AUDIO
    TITLE "TOEIC LR Kinnojyukugo_10_401"
    INDEX 01 09:21:62
